<?xml version="1.0" encoding="UTF-8"?>
<svg id="Layer_1" xmlns="http://www.w3.org/2000/svg" viewBox="0 0 1080 270">
  <defs>
    <style>
      .cls-1 {
        fill: #F68B3A;
      }
    </style>
  </defs>
  <path class="cls-1" d="M253.69,110.83c-3.02-1.36-5.94-3.77-7.92-6.25-1.99-2.47-3.6-2.93-6.03-3.58-2.43-.66-5.95,1.61-8.37-.4-1.58-1.3-.23-2.66,2.94-4.3.6-.31,1.72-.55,2.98-1.66,3.49-1.62,12.81-4.08,17.67-5.67,5.55-1.83,21.19-8.81,26.57-13.64,9.05-8.1,6.34-8.46-3.11-4.79-9.43,3.66-18.6,7.65-21.78,8.36-2.68.58-4.18,1.05-5.68,1.22,4.69-6.33,8.47-14.84,10.26-23.09,2.42-11.25-.49-24.38-3.56-29.48-3.07-5.08-11.63-10.81-19.82-11.31-5.43-.34-19.04,3.96-18.23,2.82,1.17-1.66,1.94-3.42-.11-5.37-1.61-1.55-4.17-1.04-6.89.73-4.05,2.63-4.45,5.51-3.69,8.73,1.23,5.1,6.33,7.51,14.17,6.4,12.19-1.74,13.96.19,19.06,4.52,6.18,5.26-1.41,16.94-5.31,20.52-4.82,4.41-18.32,8.02-20.81,8.63-2.49.61-10.68.56-13.64,1.77-1.62.67-6.23,4.57-9.69,4.94-3.44.37-9.2.32-11.77,1.06-2.58.74-5.03,3.04-8.16,3.12-.45.02-.95.07-1.45.13l-6.62-1.16s-20.7-6.04-27.33,11.21c-2.01,5.24-2.48,11.11-2.17,16.75.21,12.32,4.45,25.54,5.43,28.33.6.38,1.89,1.12,3.92,1.93,2.96,1.17,7.37,2.42,13.14,2.68.41.02.84.03,1.28.03,9.25.03,30.08-5.7,30.43-5.85.8-.26.36-1,.36-1l-11.84-30.65s-.29-.62.22-.88c.39-.2.79.29.79.29l15.59,33.19s.4.95-1.44,1.55c-.17.11-21.32,6.77-34.11,6.8-.48,0-.96,0-1.44-.03-12.4-.58-19.16-5.38-19.35-5.51l-.43-.31-.18-.5c-.03-.09-5.56-14.96-5.88-29.58-19.65,2.63-43.29,10.53-59.47,21.37-8.69,5.82-14.24,13.47-17.88,22.06-.81,1.12-1.52,2.08-2.01,2.79-2.91,4.12-6.66,9.28-14.24,10.77-7.57,1.48-10.37,2.15-14.28,1.49-2.92-.48-5.05-.62-2.94,1.08,2.13,1.68,7.76,3.77,13.7,3.33,4.84-.47,12.64-2.15,14.38-4.11.64-.94,1.34-2.33,1.34-2.33-2.2,10.18-2.78,21.02-3.18,31.45-.74,18.71-7.21,37.18-5.8,55.88.98,12.94,22.07,12.16,28.26,4.55,1.93-2.36-.39-14.22-.09-17.16.4-3.87,9.82-11.93,15.94-16.49,17.69-13.13,19.38,25.21,16.46,33.05-2.17,5.79,33.44,11.08,28.15-4.43-4.39-12.83-1.42-26.86.55-40.19-10.91-1.61-22.49-1.18-23.62-.63,11.3-5.57,27.23.98,42.74-2.56,3.48-.79,7.18-2.19,10.56-3.3,7.89-2.54,7.51.33,7.43,1.01-2.54,21.44-19.62,55.98-2.88,57.06,21.34,1.39,19.69,1.68,24.02-18.7,2.77-13,5.37-25.22,8.53-37.79,1.36,8.07,13.11,15.55,17.35,45.71.22,1.62-.26,4.92,2.83,5.08,40.71.76,29.46-17.28,9.01-57.76-5.19-10.27-10.09-20.86-15.07-31.23-1.5-3.12,1.52-10.81,1.52-10.81.48-1.84,1.16-4.88,1.35-7.62.29-4.25,2.5-10.08,4.3-11.16,1.79-1.08,9.79-2.71,12.49-4.34,2.69-1.63,9.01-9.44,10.7-10.05,1.67-.6,2.52.12,8.15-.02,5.63-.13,9.48-1.62,9.48-2.44s-2.75-2.92-5.78-4.28ZM326.3,250c-1.32,0-2.44.81-4.37.81-4.07,0-4.27-9.25-4.27-16.88,0-5.19.51-14.54.51-17.49,0-9.35-8.64-13.22-17.38-13.22s-18.4,4.17-18.4,10.78c0,2.95,1.52,5.9,5.9,5.9.92,0,1.93-.2,3.15-.51.2-4.88.31-11.28,9.15-11.28,7.32,0,7.93,7.22,7.93,18.09v1.83c-14.94.81-29.48,2.03-29.48,15.45,0,7.32,4.68,13.73,13.42,13.73,4.37,0,9.76-1.83,15.96-5.59,1.12,2.85,3.66,5.59,7.93,5.59,3.76,0,11.39-3.15,11.39-5.9,0-1.02-.61-1.32-1.42-1.32ZM308.51,235.67c0,5.8-.2,9.86-.51,12.3-3.56,1.32-6.71,1.93-9.35,1.93-6.1,0-9.45-3.15-9.45-7.83,0-6.91,5.59-8.64,19.31-9.15v2.74ZM683.47,250c-1.32,0-2.44.81-4.37.81-4.07,0-4.27-9.25-4.27-16.88,0-5.19.51-14.54.51-17.49,0-9.35-8.64-13.22-17.39-13.22s-18.4,4.17-18.4,10.78c0,2.95,1.52,5.9,5.9,5.9.92,0,1.93-.2,3.15-.51.2-4.88.31-11.28,9.15-11.28,7.32,0,7.93,7.22,7.93,18.09v1.83c-14.95.81-29.48,2.03-29.48,15.45,0,7.32,4.68,13.73,13.42,13.73,4.37,0,9.76-1.83,15.96-5.59,1.12,2.85,3.66,5.59,7.93,5.59,3.76,0,11.39-3.15,11.39-5.9,0-1.02-.61-1.32-1.43-1.32ZM665.68,235.67c0,5.8-.2,9.86-.51,12.3-3.56,1.32-6.71,1.93-9.35,1.93-6.1,0-9.45-3.15-9.45-7.83,0-6.91,5.59-8.64,19.31-9.15v2.74ZM777.07,224.59c-7.62-4.47-10.37-6.4-10.37-10.47,0-3.66,3.05-6,7.72-6,6.51,0,8.03,4.78,8.34,9.15,5.18,0,8.13-1.73,8.13-5.79,0-6.81-9.66-8.24-15.45-8.24-7.93,0-17.69,3.46-17.69,13.32,0,8.44,6.3,12.61,13.22,16.57,9.86,5.69,12.91,8.03,12.91,12.5,0,4.98-4.57,6.51-10.67,6.51-9.15,0-9.15-6.3-9.15-10.17-4.67-.91-8.84,1.93-8.84,6.51,0,6,6.4,8.75,17.39,8.75,9.35,0,20.44-3.46,20.44-13.93,0-9.05-6.31-13.01-15.96-18.7ZM389.82,192.36c3.76,0,6.91-3.15,6.91-6.91s-3.15-6.91-6.91-6.91-6.91,3.15-6.91,6.91,3.15,6.91,6.91,6.91ZM404.15,252.54c-6.71-1.02-7.01-2.13-7.73-7.32-.31-2.44-.51-7.01-.51-12.81v-3.76c0-10.88.41-17.08.41-20.13s-1.42-4.27-3.36-4.27c-2.44,0-12.3,1.43-15.86,2.44-1.02.31-1.42,1.22-1.42,2.04,0,.91.51,1.83,1.42,1.83h2.14c7.22,0,7.42,7.22,7.42,18.09v3.76c0,5.8-.31,10.37-.51,12.81-.4,5.09-1.42,6.3-8.54,7.32-1.12.2-1.63,1.12-1.63,2.03,0,.81.41,1.63,1.32,1.63h27.14c.92,0,1.32-.81,1.32-1.63,0-.91-.51-1.83-1.63-2.03ZM702.78,192.36c3.76,0,6.91-3.15,6.91-6.91s-3.15-6.91-6.91-6.91-6.91,3.15-6.91,6.91,3.15,6.91,6.91,6.91ZM352.62,224.59c-7.62-4.47-10.37-6.4-10.37-10.47,0-3.66,3.05-6,7.73-6,6.51,0,8.03,4.78,8.34,9.15,5.19,0,8.13-1.73,8.13-5.79,0-6.81-9.66-8.24-15.45-8.24-7.93,0-17.69,3.46-17.69,13.32,0,8.44,6.3,12.61,13.22,16.57,9.86,5.69,12.91,8.03,12.91,12.5,0,4.98-4.57,6.51-10.68,6.51-9.15,0-9.15-6.3-9.15-10.17-4.68-.91-8.85,1.93-8.85,6.51,0,6,6.4,8.75,17.39,8.75,9.35,0,20.43-3.46,20.43-13.93,0-9.05-6.3-13.01-15.96-18.7ZM626.04,203.24c-4.67,0-9.86,2.95-14.43,15.15,0-7.32-1.32-14.13-4.58-14.13-2.44,0-10.88,1.43-14.44,2.44-1.01.31-1.42,1.22-1.42,2.04,0,.91.51,1.83,1.93,1.83h1.63c7.22,0,7.72,4.98,7.72,15.86v6c0,5.8-.3,10.37-.5,12.81-.41,5.09-1.42,6.3-8.54,7.32-1.12.2-1.62,1.12-1.62,2.03,0,.81.41,1.63,1.62,1.63h29.38c1.32,0,1.73-.81,1.73-1.63,0-.91-.51-1.83-1.63-2.03-6.71-1.02-10.27-2.13-10.98-7.32-.31-2.44-.51-4.78-.51-15.25,0-9.56,6.61-16.47,11.08-16.47,2.85,0,4.17,1.93,4.78,3.46,1.42,0,6.51-1.32,6.51-6.3s-3.36-7.42-7.73-7.42ZM587.31,248.07c-1.42,0-3.97,1.53-8.23,1.53-4.58,0-7.63-2.13-7.63-7.63v-32.43h12.4c2.34,0,3.25-1.93,3.25-3.25,0-1.42-1.02-2.85-2.95-2.85-2.34,0-8.64.51-12.71.71v-11.18c0-1.42-.51-2.03-1.32-2.03-1.83,0-2.54,2.03-8.13,8.24-5.09,5.69-8.34,6.81-8.34,8.54,0,1.02.71,1.52,2.14,1.52h6c0,8.34-.61,26.94-.61,35.89,0,8.24,5.09,12.1,11.49,12.1,7.72,0,15.65-6,15.65-8.24,0-.71-.41-.92-1.02-.92ZM717.11,252.54c-6.71-1.02-7.02-2.13-7.72-7.32-.31-2.44-.51-7.01-.51-12.81v-3.76c0-10.88.41-17.08.41-20.13s-1.42-4.27-3.36-4.27c-2.44,0-12.3,1.43-15.86,2.44-1.01.31-1.42,1.22-1.42,2.04,0,.91.51,1.83,1.42,1.83h2.14c7.22,0,7.42,7.22,7.42,18.09v3.76c0,5.8-.31,10.37-.51,12.81-.41,5.09-1.43,6.3-8.54,7.32-1.12.2-1.62,1.12-1.62,2.03,0,.81.41,1.63,1.32,1.63h27.14c.92,0,1.32-.81,1.32-1.63,0-.91-.51-1.83-1.63-2.03ZM457.82,250c-1.32,0-2.44.81-4.37.81-4.06,0-4.27-9.25-4.27-16.88,0-5.19.51-14.54.51-17.49,0-9.35-8.64-13.22-17.39-13.22s-18.4,4.17-18.4,10.78c0,2.95,1.52,5.9,5.89,5.9.92,0,1.93-.2,3.16-.51.2-4.88.31-11.28,9.15-11.28,7.32,0,7.93,7.22,7.93,18.09v1.83c-14.94.81-29.48,2.03-29.48,15.45,0,7.32,4.68,13.73,13.42,13.73,4.37,0,9.76-1.83,15.96-5.59,1.12,2.85,3.66,5.59,7.93,5.59,3.76,0,11.38-3.15,11.38-5.9,0-1.02-.61-1.32-1.42-1.32ZM440.03,235.67c0,5.8-.2,9.86-.51,12.3-3.55,1.32-6.71,1.93-9.35,1.93-6.1,0-9.46-3.15-9.46-7.83,0-6.91,5.59-8.64,19.31-9.15v2.74ZM525.42,252.44c-6.71-1.02-7.83-1.73-7.83-7.22v-28.57c0-9.45-6.3-13.42-13.83-13.42-6.4,0-12.1,3.46-15.55,5.49l-4.88,2.74c-.1-5.29-.2-7.22-3.46-7.22-2.44,0-11.89,1.43-15.46,2.44-1.01.31-1.42,1.22-1.42,2.04,0,.91.51,1.83,1.42,1.83h2.14c7.22,0,7.42,7.22,7.42,18.09v3.76c0,5.8-.31,10.37-.51,12.81-.41,5.09-1.43,6.3-8.54,7.32-1.12.2-1.62,1.12-1.62,2.03,0,.81.4,1.63,1.32,1.63h26.74c.92,0,1.32-.81,1.32-1.63,0-.91-.51-1.93-1.63-2.13-6.71-1.02-7.83-1.73-7.83-7.22v-28.36c6.71-3.56,11.18-5.69,16.27-5.69,3.86,0,8.03,1.22,8.03,9.25v10.37c0,20.63-1.52,20.74-8.64,21.75-1.12.2-1.63,1.12-1.63,2.03,0,.81.41,1.63,1.32,1.63h27.14c.91,0,1.32-.81,1.32-1.63,0-.91-.51-1.93-1.62-2.13ZM749.53,252.54c-6.71-1.12-7.02-2.13-7.73-7.32-.31-2.44-.51-7.01-.51-12.81v-35.17c0-10.88.41-17.08.41-20.13s-1.42-4.27-3.35-4.27c-2.44,0-12.81,2.54-16.37,3.56-1.01.3-1.42,1.12-1.42,1.93s.51,1.62,1.62,1.62h4.58c5.08,0,5.08,6.4,5.08,17.28v35.17c0,5.8-.31,10.37-.5,12.81-.41,5.09-1.42,6.2-8.54,7.32-1.12.2-1.62,1.12-1.62,2.03,0,.81.41,1.63,1.32,1.63h27.35c.92,0,1.32-.81,1.32-1.63,0-.91-.5-1.83-1.62-2.03Z"/>
</svg>